<svg viewBox="0 0 100 100" xmlns="http://www.w3.org/2000/svg" id="Fruits--Streamline-Ux">
  <desc>
    Fruits Streamline Illustration: https://streamlinehq.com
  </desc>
  <!-- Pineapple leaves (green) -->
  <path d="M38.62 23.005a26.514 26.514 0 0 1 -0.708 -6.075 1.191 1.191 0 0 1 2.036 -0.846 18.661 18.661 0 0 1 2.171 2.681" fill="none" stroke="#7FA99B" stroke-linecap="round" stroke-linejoin="round" stroke-width="1.5"></path>
  <path d="M52.855 23.005a26.514 26.514 0 0 0 0.708 -6.075 1.191 1.191 0 0 0 -2.037 -0.846 18.722 18.722 0 0 0 -2.17 2.681" fill="none" stroke="#7FA99B" stroke-linecap="round" stroke-linejoin="round" stroke-width="1.5"></path>
  <path d="M50.435 24.224a24.632 24.632 0 0 0 -3.7 -11.083 1.192 1.192 0 0 0 -2 0 24.612 24.612 0 0 0 -3.7 11.083" fill="none" stroke="#7FA99B" stroke-linecap="round" stroke-linejoin="round" stroke-width="1.5"></path>
  <path d="m38.505 28.8 -2.99 -4.185a1.192 1.192 0 0 1 0.941 -1.884 7.236 7.236 0 0 1 5.816 2.7" fill="none" stroke="#7FA99B" stroke-linecap="round" stroke-linejoin="round" stroke-width="1.5"></path>
  <path d="m52.97 28.8 2.989 -4.185a1.191 1.191 0 0 0 -0.94 -1.884 7.236 7.236 0 0 0 -5.816 2.7" fill="none" stroke="#7FA99B" stroke-linecap="round" stroke-linejoin="round" stroke-width="1.5"></path>
  <path d="M50.9 29.723a12.187 12.187 0 0 0 -4.427 -7.309 1.192 1.192 0 0 0 -1.462 0 12.182 12.182 0 0 0 -4.428 7.31" fill="none" stroke="#7FA99B" stroke-linecap="round" stroke-linejoin="round" stroke-width="1.5"></path>
  <path d="m38.574 35.35 -4.2 -4.958a1.191 1.191 0 0 1 0.82 -1.957c2.066 -0.155 5.147 0.449 6.919 2.657" fill="none" stroke="#7FA99B" stroke-linecap="round" stroke-linejoin="round" stroke-width="1.5"></path>
  <path d="m52.9 35.35 4.2 -4.958a1.191 1.191 0 0 0 -0.82 -1.957c-2.066 -0.155 -5.147 0.449 -6.92 2.657" fill="none" stroke="#7FA99B" stroke-linecap="round" stroke-linejoin="round" stroke-width="1.5"></path>
  <path d="M50.9 34.583c0.25 -1.45 -0.408 -2.88 -2.593 -4.255a4.819 4.819 0 0 0 -5.134 0c-2.182 1.375 -2.84 2.805 -2.59 4.254" fill="none" stroke="#7FA99B" stroke-linecap="round" stroke-linejoin="round" stroke-width="1.5"></path>
  
  <!-- Pineapple body (yellow/orange) -->
  <path d="M43.661 63.656a163.514 163.514 0 0 0 17.9 -19.525" fill="none" stroke="#FF9F40" stroke-linecap="round" stroke-linejoin="round" stroke-width="1.5"></path>
  <path d="M42.192 56.338a163.5 163.5 0 0 0 15.625 -17.613" fill="none" stroke="#FF9F40" stroke-linecap="round" stroke-linejoin="round" stroke-width="1.5"></path>
  <path d="M28.464 60.239A163.5 163.5 0 0 0 52.607 35.22" fill="none" stroke="#FF9F40" stroke-linecap="round" stroke-linejoin="round" stroke-width="1.5"></path>
  <path d="M28.464 51.9a163.433 163.433 0 0 0 17.248 -18.1" fill="none" stroke="#FF9F40" stroke-linecap="round" stroke-linejoin="round" stroke-width="1.5"></path>
  <path d="M38 53.74q-4.22 -4.644 -8.081 -9.609" fill="none" stroke="#FF9F40" stroke-linecap="round" stroke-linejoin="round" stroke-width="1.5"></path>
  <path d="M51.242 58.218a163.493 163.493 0 0 1 -17.584 -19.493" fill="none" stroke="#FF9F40" stroke-linecap="round" stroke-linejoin="round" stroke-width="1.5"></path>
  <path d="M55.4 53.459A163.465 163.465 0 0 1 38.868 35.22" fill="none" stroke="#FF9F40" stroke-linecap="round" stroke-linejoin="round" stroke-width="1.5"></path>
  <path d="M59.55 48.688A163.346 163.346 0 0 1 45.763 33.8" fill="none" stroke="#FF9F40" stroke-linecap="round" stroke-linejoin="round" stroke-width="1.5"></path>
  <path d="M33.809 58.514q-2.748 -3.008 -5.345 -6.151" fill="none" stroke="#FF9F40" stroke-linecap="round" stroke-linejoin="round" stroke-width="1.5"></path>
  <path d="M62.153 45.684a17.276 17.276 0 0 0 -33.689 5.388v10.992" fill="none" stroke="#FF9F40" stroke-linecap="round" stroke-linejoin="round" stroke-width="1.5"></path>
  
  <!-- Additional fruits -->
  <path d="M56.176 80.586A29.19 29.19 0 0 0 80.845 30.54a1.155 1.155 0 0 0 -1.663 0.082l-0.791 0.91c2.7 2.344 15.7 19.162 0.859 36.25 -7.134 8.212 -15.107 10.047 -21.763 9.476" fill="none" stroke="#FF9F40" stroke-linecap="round" stroke-linejoin="round" stroke-width="1.5"></path>
  <path d="m52.722 61.082 25.669 -29.55" fill="none" stroke="#FF9F40" stroke-linecap="round" stroke-linejoin="round" stroke-width="1.5"></path>
  <path d="M74.3622845928 64.326618814a1.191 0.596 40.98 1 0 0.7817082905 -0.8998867421 1.191 0.596 40.98 1 0 -0.7817082905 0.8998867421Z" fill="none" stroke="#FF9F40" stroke-linecap="round" stroke-linejoin="round" stroke-width="1.5"></path>
  <path d="M65.937116111 69.5166911912a1.191 0.596 72.053 1 0 1.1339996136 -0.3672994372 1.191 0.596 72.053 1 0 -1.1339996135 0.3672994372Z" fill="none" stroke="#FF9F40" stroke-linecap="round" stroke-linejoin="round" stroke-width="1.5"></path>
  <path d="M55.981 70.1a2.214 2.214 0 0 1 0.06 -0.49c0.149 -0.641 0.53 -1.1 0.851 -1.025s0.458 0.654 0.309 1.3c-0.13 0.557 -0.435 0.977 -0.723 1.028" fill="none" stroke="#FF9F40" stroke-linecap="round" stroke-linejoin="round" stroke-width="1.5"></path>
  <path d="M78.901573754 55.5312657226a1.191 0.596 9.907 1 0 0.2050829478 -1.17422527 1.191 0.596 9.907 1 0 -0.2050829478 1.17422527Z" fill="none" stroke="#FF9F40" stroke-linecap="round" stroke-linejoin="round" stroke-width="1.5"></path>
  <path d="M76.9224161945 45.5300368177a1.191 0.596 -21.166 1 0 2.2213060624 -0.8600717279 1.191 0.596 -21.166 1 0 -2.2213060624 0.860071728Z" fill="none" stroke="#FF9F40" stroke-linecap="round" stroke-linejoin="round" stroke-width="1.5"></path>
  <path d="M27.307 81.619A5.111 5.111 0 0 1 24.3 82.64c-1.191 0 -2.383 -0.595 -3.574 -0.595s-2.382 0.595 -3.574 0.595c-4.361 0 -7.152 -5.877 -7.152 -9.87v-1.156a7.729 7.729 0 0 1 3.091 -6.183 6.276 6.276 0 0 1 6.573 -0.592 2.368 2.368 0 0 0 2.114 0 6.276 6.276 0 0 1 6.573 0.592 7.735 7.735 0 0 1 2.642 3.585" fill="none" stroke="#FF9F40" stroke-linecap="round" stroke-linejoin="round" stroke-width="1.5"></path>
  <path d="M20.721 68.345s1.191 -5.956 -1.787 -8.934" fill="none" stroke="#FF9F40" stroke-linecap="round" stroke-linejoin="round" stroke-width="1.5"></path>
  <path d="M18.934 67.75a2.612 2.612 0 0 0 1.787 0.595 2.612 2.612 0 0 0 1.787 -0.595" fill="none" stroke="#FF9F40" stroke-linecap="round" stroke-linejoin="round" stroke-width="1.5"></path>
  <path d="M41.362 68.773a9.5 9.5 0 0 1 6.758 -2.81" fill="none" stroke="#FF9F40" stroke-linecap="round" stroke-linejoin="round" stroke-width="1.5"></path>
  <path d="M51.941 66.76a9.533 9.533 0 0 1 -7.652 17.462" fill="none" stroke="#FF9F40" stroke-linecap="round" stroke-linejoin="round" stroke-width="1.5"></path>
  <path d="M54.518 62.325A1.192 1.192 0 0 0 53.1 61a6.706 6.706 0 0 0 -3.466 1.644 6.7 6.7 0 0 0 -1.4 3.569 1.192 1.192 0 0 0 1.42 1.327 6.706 6.706 0 0 0 3.466 -1.644 6.7 6.7 0 0 0 1.398 -3.571Z" fill="none" stroke="#FF9F40" stroke-linecap="round" stroke-linejoin="round" stroke-width="1.5"></path>
  <path d="M43.91 76.324a15.932 15.932 0 0 1 -1.766 -4.346c-0.492 -2.034 -1.05 -4.3 -1.5 -6.116a4.571 4.571 0 0 0 -8.874 0c-0.449 1.817 -1.007 4.082 -1.5 6.116a15.9 15.9 0 0 1 -1.765 4.346 8.889 8.889 0 0 0 -1.232 4.53c0 4.934 4 6.551 8.934 6.551s8.935 -1.617 8.935 -6.551a8.889 8.889 0 0 0 -1.232 -4.53Z" fill="none" stroke="#FF9F40" stroke-linecap="round" stroke-linejoin="round" stroke-width="1.5"></path>
  <path d="M36.207 62.389v-0.7a6.134 6.134 0 0 1 2.979 -5.26" fill="none" stroke="#FF9F40" stroke-linecap="round" stroke-linejoin="round" stroke-width="1.5"></path>
</svg>