<svg width="24" height="24" viewBox="0 0 24 24" fill="none" xmlns="http://www.w3.org/2000/svg">
<path d="M19.589 6.686C17.447 6.686 15.481 5.89 13.946 4.584C13.946 4.384 13.946 4.184 13.946 3.984V13.778C13.946 17.086 11.259 19.773 7.951 19.773C4.643 19.773 1.956 17.086 1.956 13.778C1.956 10.47 4.643 7.783 7.951 7.783C8.423 7.783 8.878 7.845 9.314 7.962V10.87C9.066 10.796 8.802 10.754 8.528 10.754C6.86 10.754 5.508 12.106 5.508 13.774C5.508 15.442 6.86 16.794 8.528 16.794C10.196 16.794 11.548 15.442 11.548 13.774V0H14.812C14.812 2.639 16.951 4.778 19.59 4.778V6.686H19.589Z" fill="white"/>
</svg>
